<?xml version="1.0" encoding="UTF-8" standalone="no"?>
<!-- 
  Brand Color Palette - Light & Dark Theme
  
  This SVG file serves as a visual guide for the brand's color palette,
  including a sample for a brandbook. The colors are designed to appeal to 
  individuals seeking change, based on psychological principles.

  Light Theme Colors:
  - Deep Teal: #006B7F (Primary Brand Color)
  - Forest Green: #2F5C58 (Secondary Brand Color)
  - Goldenrod: #C29F54 (Accent Color)
  - Light Taupe: #EBEAE5 (Background Color)
  - Charcoal: #292929 (Text/Dark Neutral)

  Dark Theme Colors:
  - Lighter Teal: #41A2B5
  - Lighter Green: #75AB9E
  - Lighter Goldenrod: #EED48E
  - Very Dark Grey: #1A1A1A
  - Light Taupe: #EBEAE5
-->

<svg
   width="56.530609"
   height="121.4892"
   viewBox="0 0 56.530609 121.4892"
   font-family="'PT Serif', serif"
   version="1.1"
   id="svg23"
   xml:space="preserve"
   xmlns="http://www.w3.org/2000/svg"
   xmlns:svg="http://www.w3.org/2000/svg"><defs
     id="defs23" /><!-- Main Title --><!-- ======================== Light Theme ======================== --><!-- Color 1: Deep Teal --><!-- Color 2: Forest Green --><!-- Color 3: Goldenrod --><!-- Color 4: Light Taupe --><!-- Color 5: Charcoal --><!-- ======================== Dark Theme ======================== --><!-- Color 1: Lighter Teal --><!-- Color 2: Lighter Green --><!-- Color 3: Lighter Goldenrod --><!-- Color 4: Light Taupe for text in Dark Theme --><!-- Color 5: Very Dark Grey --><g
     id="g3"
     transform="translate(-322.12708,-441.27782)"><circle
       style="fill:#b08a4d;fill-opacity:1;stroke:#b08a4d;stroke-width:1.87259;stroke-opacity:1"
       id="path7078-0-0-1-2-7"
       cx="359.44412"
       cy="460.49139"
       r="18.277258" /><g
       id="g7060-0-1-3"
       transform="matrix(2.4993094,0,0,2.4993094,88.033362,77.096237)"
       style="fill:none;stroke:#292929;stroke-opacity:1"><path
         style="fill:none;stroke:#292929;stroke-width:0.264583;stroke-opacity:1"
         d="m 97.414291,193.74124 0.543671,-0.93201 -0.291254,-1.39801 0.07767,-1.28151 -0.349504,-1.00968 0.194169,-2.87369 0.310669,-1.82519 -0.582504,-1.82518 v -1.35918 l 0.07767,-2.25235 -0.233003,-3.30087 -0.03883,-1.55334 -0.271835,-0.85434 -0.388337,1.63101 -0.815507,2.33002 -0.07767,1.43685 -0.07767,0.19417 H 95.33669 l 0.349501,1.08734 0.116501,0.89318 -0.01942,0.27183 h -0.271836 l -0.09708,0.13592 -0.291254,-0.0388 -0.233,-0.13591 -0.349504,-0.36892 -0.271835,-0.38834 -0.310671,-0.40775 0.09709,-0.87376 -0.252421,0.0583 0.07767,-1.86402 c 0,0 0.213585,-1.80576 0.213585,-1.94168 0,-0.13592 0.48542,-1.94168 0.48542,-1.94168 l 0.640758,-2.34944 0.834924,-1.51452 2.174684,-0.93201 0.03883,-0.5825 -0.05825,-0.95143 0.718423,-0.19416 -0.135919,-0.79609 0.09708,-0.85434 0.291253,-0.56309 0.640755,-0.60192 0.834926,-0.0971 0.62134,0.62134 0.42717,0.52425 0.0971,0.52426 -0.0971,0.29125 0.13592,0.54367 -0.19417,0.42717 0.44659,0.233 0.25242,0.73785 -0.21359,0.52425 0.71842,0.42717 0.42717,-0.19417 0.73784,0.25242 0.83493,0.466 1.22326,0.54368 0.466,0.1165 0.3495,0.1165 0.46601,-0.0194 0.233,-0.1165 0.19417,-0.233 0.27184,-0.46601 0.1165,-0.36892 0.0777,-0.36892 0.36891,-0.5825 0.23301,-0.1165 0.25241,-0.99026 v -0.36892 l 0.11651,-0.29126 0.0388,-0.31066 0.19417,-0.11651 -0.54367,-6.91239 -0.48542,-0.44659 -0.13592,-0.52425 -0.29126,-0.50484 -0.38833,-0.54367 -0.17475,-0.71843 -0.29125,-0.91259 -0.34951,-0.5825 v -0.83493 l 0.0388,-1.22326 0.15533,-0.83492 -0.0583,-0.66017 -1.11376,-0.56286 0.30285,-0.65518 0.96601,0.18134 0.0106,-0.82281 0.98669,1.33525 -0.007,-1.3786 -0.33479,-1.03185 0.28694,0.17849 0.56063,-0.4998 0.047,0.81614 0.69312,0.0561 0.84463,0.36546 -0.91308,1.18335 c 0.63635,-0.0117 -0.3495,1.28108 -0.3495,1.28108 l 0.1165,0.52426 -0.38834,0.44658 -0.0194,0.64076 0.0971,0.71842 0.66017,0.67959 -0.17475,1.06793 0.5825,0.64075 0.0194,0.64076 0.1165,0.50484 0.19417,0.73784 -0.19417,0.60192 -0.29125,0.0971 -0.13592,-0.19416 0.89318,7.63081 0.36892,0.19417 -0.0971,0.21359 0.19417,0.31067 0.0583,0.31067 -0.1165,0.40775 -0.33008,0.40775 -0.31068,0.38834 v 0.52426 l -0.21358,0.5825 -0.19417,0.69901 -0.25242,0.62134 -0.33008,0.79609 -0.17475,0.15533 -0.64076,0.52426 -0.79609,0.17475 -1.06793,0.0582 -1.06792,-0.27184 -1.08735,-0.29125 -0.25242,-0.27184 -0.37834,-0.47543 0.0677,0.84435 -0.0777,0.95143 -0.0583,0.67959 v 0.54367 l 0.233,4.54354 -0.15534,0.17475 0.0582,1.4951 -0.1165,1.68927 -0.17475,2.50477 0.0388,1.12617 0.21358,1.04851 0.1165,1.00968 0.0777,2.3106 -0.0777,1.24268 -0.0194,0.87376 0.21359,0.31067 0.19417,0.21358 0.38833,0.1165 0.36892,0.11651 0.0583,0.233 0.0971,0.44659 -1.78635,0.44658 -0.83492,-0.1165 0.15533,-0.42717 -0.21359,-0.50484 0.0971,-0.56308 -0.1165,-0.11651 -0.17476,-1.63101 -0.15533,-1.02909 -0.31067,-1.2621 -0.15533,-1.10676 0.0971,-0.36892 -0.42717,-1.49509 -0.38834,-2.56303 -0.29125,-1.16501 -0.0971,-0.0777 -0.19417,1.4951 v 1.28151 0.60192 l -0.21359,0.17476 -0.155332,0.5825 -0.271838,0.91259 -0.194167,1.51452 c 0,0 -0.174752,2.25235 -0.174752,2.33002 0,0.0777 0.09708,1.82518 0.09708,1.82518 l -0.116498,1.18443 -1.883434,0.0777"
         id="path7036-9-2-7" /><path
         style="fill:none;stroke:#292929;stroke-width:0.264583;stroke-opacity:1"
         d="m 99.293769,192.21692 -1.647574,-1.86725"
         id="path7037-3-9-5" /><path
         style="fill:none;stroke:#292929;stroke-width:0.264583;stroke-opacity:1"
         d="m 97.865871,190.45951 1.647573,-2.74596 c -0.146451,-0.18306 -0.292901,-0.36613 -0.439352,-0.54919"
         id="path7038-6-3-9" /><path
         style="fill:none;stroke:#292929;stroke-width:0.264583;stroke-opacity:1"
         d="m 99.148427,187.24869 -1.282556,-2.39093 2.581199,-3.24023 -2.794968,-1.75741 5.963838,-0.95726 -6.848451,-5.96255 -0.60411,-3.56974"
         id="path7039-0-1-2" /><path
         style="fill:none;stroke:#292929;stroke-width:0.264583;stroke-opacity:1"
         d="m 96.712568,172.99523 7.013562,-1.7735"
         id="path7040-6-9-2" /><path
         style="fill:none;stroke:#292929;stroke-width:0.264583;stroke-opacity:1"
         d="m 103.82988,192.43992 -1.57048,-2.36485 1.34414,-2.63611 -1.77073,-0.27013 0.21023,-1.25486"
         id="path7041-2-4-8" /><path
         style="fill:none;stroke:#292929;stroke-width:0.264583;stroke-opacity:1"
         d="m 102.01088,185.9428 1.3469,-2.78754 -2.96563,-1.64757 3.37753,-2.66357 -0.0274,-2.88326"
         id="path7042-6-7-9" /><path
         style="fill:none;stroke:#292929;stroke-width:0.264583;stroke-opacity:1"
         d="m 103.60492,171.34766 -0.68649,-2.52629"
         id="path7043-1-8-7" /><path
         style="fill:none;stroke:#292929;stroke-width:0.264583;stroke-opacity:1"
         d="m 98.317977,168.57286 3.802743,-0.21968"
         id="path7044-8-4-3" /><path
         style="fill:none;stroke:#292929;stroke-width:0.28092;stroke-opacity:1"
         d="m 107.63374,169.92246 -0.93236,2.59646 -2.24352,-0.46677"
         id="path7045-7-5-6" /><path
         style="fill:none;stroke:#292929;stroke-width:0.264583;stroke-opacity:1"
         d="m 108.73986,167.72299 1.40044,0.79632"
         id="path7046-9-0-1" /><path
         style="fill:none;stroke:#292929;stroke-width:0.264583;stroke-opacity:1"
         d="m 94.102246,179.05242 1.258427,-0.1728"
         id="path7047-2-3-2" /><path
         style="fill:none;stroke:#292929;stroke-width:0.264583;stroke-opacity:1"
         d="m 95.666061,177.222 -1.534403,-1.97376"
         id="path7048-0-6-9" /><path
         style="fill:none;stroke:#292929;stroke-width:0.264583;stroke-opacity:1"
         d="m 96.712569,172.99522 -2.567065,2.24588"
         id="path7052-2-1-3" /><path
         style="fill:none;stroke:#292929;stroke-width:0.264583;stroke-opacity:1"
         d="m 108.87715,158.57896 c 0.0366,0 0.0732,0 0,0 z"
         id="path7053-3-0-1" /><path
         style="fill:none;stroke:#292929;stroke-width:0.264583;stroke-opacity:1"
         d="m 109.50872,158.60642 -0.71394,-0.10984"
         id="path7054-7-6-9" /><path
         style="fill:none;stroke:#292929;stroke-width:0.264583;stroke-opacity:1"
         d="m 110.49761,166.2586 -1.09872,-0.67745"
         id="path7055-5-3-4" /><path
         style="fill:none;stroke:#292929;stroke-width:0.242603;stroke-opacity:1"
         d="m 107.55197,169.74468 1.50828,1.5844 -0.245,-3.49379"
         id="path7056-9-2-7" /><path
         style="fill:none;stroke:#292929;stroke-width:0.264583;stroke-opacity:1"
         d="m 98.881873,166.78937 c 0.164225,0.0328 0.09063,0.0275 0.219679,0.0275"
         id="path7057-2-0-8" /><path
         style="fill:none;stroke:#292929;stroke-width:0.279408;stroke-opacity:1"
         d="m 102.06328,168.2367 -3.09513,-1.49423"
         id="path7058-2-6-4" /><path
         style="fill:none;stroke:#292929;stroke-width:0.230644;stroke-opacity:1"
         d="m 108.73027,158.4875 0.42084,-3.03894"
         id="path7059-8-1-5" /><path
         style="fill:none;stroke:#292929;stroke-width:0.2502;stroke-opacity:1"
         d="m 109.19867,155.56206 -2.22344,-1.17179 1.64259,-0.49975 -1.63515,-1.14257 1.92433,-1.34215"
         id="path7060-9-5-0" /></g></g></svg>
