<?xml version="1.0" encoding="UTF-8" standalone="no"?>
<!-- Created with Inkscape (http://www.inkscape.org/) -->

<svg
   width="163.9278mm"
   height="149.65552mm"
   viewBox="0 0 163.9278 149.65552"
   version="1.1"
   id="svg1"
   xmlns="http://www.w3.org/2000/svg"
   xmlns:svg="http://www.w3.org/2000/svg">
  <defs
     id="defs1" />
  <g
     id="layer1"
     transform="translate(-112.96267,-24.961722)">
    <path
       id="path1-0"
       style="fill:#ff6600;fill-rule:nonzero;stroke:none;stroke-width:0.264583"
       d="m 165.9647,179.46155 7.2023,-10.67387 10.73748,-16.05491 10.73748,-16.05492 7.11433,-10.7327 -7.2023,10.67386 -10.73748,16.05492 -10.73748,16.05492 z m 1.56822,-1.8439 9.37719,-14.50979 13.99898,-21.80756 13.99899,-21.80756 9.28812,-14.56696 -9.37719,14.50979 -13.99898,21.80756 -13.99898,21.80756 z m -3.005,5.55385 8.14351,-13.20466 12.14755,-19.84844 12.14755,-19.84843 8.05324,-13.25991 -8.14351,13.20466 -12.14755,19.84844 -12.14755,19.84843 z m 5.47662,-8.33644 8.76368,-14.93912 13.07693,-22.44862 13.07694,-22.44863 8.67223,-14.99239 -8.76368,14.93912 -13.07694,22.44862 -13.07693,22.44863 z m 1.69139,-2.26838 7.14358,-12.8721 10.64583,-19.3464 10.64584,-19.34641 7.05086,-12.92312 -7.14359,12.87209 -10.64583,19.34641 -10.64583,19.34641 z m -2.43483,5.50117 6.86948,-13.15287 10.23372,-19.76581 10.23373,-19.7658 6.77549,-13.20153 -6.86948,13.15287 -10.23372,19.7658 -10.23373,19.76581 z m 3.31835,-5.34377 4.4687,-9.03066 6.63173,-13.58081 6.63172,-13.58082 4.3736,-9.0771 -4.4687,9.03066 -6.63172,13.58082 -6.63173,13.58082 z m 1.34939,-1.61511 6.07505,-13.31036 9.04026,-19.99823 9.04025,-19.99824 5.97861,-13.35396 -6.07505,13.31036 -9.04025,19.99824 -9.04025,19.99824 z m 0.0461,1.41538 5.76404,-13.9499 8.5726,-20.95492 8.57259,-20.95491 5.66609,-13.98998 -5.76404,13.9499 -8.5726,20.95492 -8.5726,20.95491 z m 0.76101,-0.0311 4.54515,-12.02141 6.74336,-18.05987 6.74337,-18.05988 4.446,-12.05843 -4.54515,12.02141 -6.74336,18.05988 -6.74337,18.05987 z m 1.86545,-2.95414 4.57857,-13.48049 6.79261,-20.24598 6.79261,-20.24597 4.47824,-13.51416 -4.57858,13.48049 -6.79261,20.24598 -6.79261,20.24598 z m 2.21093,-4.6974 3.2606,-11.15652 4.81461,-16.75669 4.81461,-16.7567 3.15888,-11.18574 -3.2606,11.15652 -4.81461,16.75669 -4.81461,16.7567 z m -0.64868,5.82931 c 1.08623,-4.46484 2.17246,-8.92969 3.2587,-13.39454 l 4.81085,-20.11027 4.81085,-20.11028 3.15577,-13.41916 -3.2587,13.39454 -4.81085,20.11028 -4.81085,20.11027 c -1.05193,4.47306 -2.10385,8.94611 -3.15577,13.41916 z m 2.66154,-7.91242 2.07234,-11.13672 3.0304,-16.71924 3.0304,-16.71924 1.9682,-11.1556 -2.07234,11.13672 -3.0304,16.71924 -3.0304,16.71924 z m 0.70639,1.83459 1.45292,-10.42384 2.10072,-15.64632 2.10071,-15.64632 1.34803,-10.43792 -1.45292,10.42384 -2.10072,15.64632 -2.10071,15.64631 z m 1.27184,-2.52704 0.61236,-8.18113 0.83935,-12.27711 0.83934,-12.27711 0.50678,-8.18835 -0.61236,8.18113 -0.83935,12.27711 -0.83935,12.27711 z m 1.06764,2.71653 0.26629,-10.92095 0.32009,-16.38297 0.32009,-16.38297 0.16048,-10.92302 -0.2663,10.92095 -0.32008,16.38297 -0.32009,16.38297 z m 1.36546,-3.55767 -0.33749,-7.29741 -0.5855,-10.94188 -0.58549,-10.94188 -0.44318,-7.29176 0.3375,7.29741 0.58549,10.94188 0.5855,10.94188 z m 1.04777,-1.87098 -0.93329,-8.47946 -1.47878,-12.71002 -1.47877,-12.71002 -1.03842,-8.46723 0.93329,8.47946 1.47878,12.71002 1.47878,12.71002 z m 1.57149,0.57436 -1.55148,-7.83136 -2.40499,-11.7311 -2.40498,-11.7311 -1.65516,-7.8101 1.55148,7.83136 2.40499,11.7311 2.40498,11.7311 z m 0.0384,-5.68052 -2.39028,-8.66117 -3.66181,-12.97019 -3.66181,-12.97019 -2.49213,-8.63242 2.39028,8.66117 3.66181,12.97019 3.6618,12.9702 z m 0.54246,-2.65114 -2.20689,-6.00463 -3.38462,-8.97896 -3.38461,-8.97896 -2.30593,-5.96731 2.2069,6.00464 3.38461,8.97896 3.38462,8.97896 z m 1.97225,1.43994 -3.89453,-8.40444 -5.91362,-12.57288 -5.91362,-12.57288 -3.9903,-8.35939 3.89453,8.40444 5.91362,12.57287 5.91362,12.57288 z m 0.93702,-1.38237 -3.38211,-5.89772 -5.14171,-8.80655 -5.14171,-8.80655 -3.4735,-5.84435 3.38211,5.89771 5.14171,8.80655 5.14171,8.80656 z m 3.2524,2.03805 -3.77742,-5.42759 -5.73093,-8.09553 -5.73093,-8.09553 -3.8638,-5.36645 3.77742,5.4276 5.73093,8.09553 5.73093,8.09553 z m 0.84499,-1.88742 -4.85069,-5.90803 -7.33705,-8.81124 -7.33704,-8.81124 -4.93203,-5.8403 4.8507,5.90802 7.33704,8.81124 7.33705,8.81124 z m -0.62723,-3.19404 c -1.41588,-1.49751 -2.83176,-2.99502 -4.24764,-4.49253 l -6.42867,-6.68377 -6.42868,-6.68378 -4.32392,-4.41917 4.24765,4.49254 6.42867,6.68377 6.42867,6.68378 c 1.44131,1.47305 2.88262,2.94611 4.32392,4.41916 z m 2.91536,0.50272 -5.80178,-5.16483 -8.75506,-7.6876 -8.75505,-7.6876 -5.87162,-5.0853 5.80179,5.16483 8.75505,7.6876 8.75506,7.6876 z m -2.90486,-4.48591 -6.54068,-5.03416 -9.85901,-7.48804 -9.85902,-7.48804 -6.60469,-4.94989 6.54068,5.03417 9.85901,7.48804 9.85902,7.48804 z m 4.84631,1.47969 -9.02974,-5.9423 -13.58792,-8.84693 -13.58791,-8.84692 -9.08748,-5.85361 9.02973,5.9423 13.58792,8.84693 13.58791,8.84692 z m 0.84441,-1.44108 -6.73869,-3.91733 -10.14747,-5.80711 -10.14747,-5.8071 -6.79126,-3.82548 6.73869,3.91733 10.14747,5.80711 10.14747,5.8071 z m -0.77831,-2.09443 -8.41548,-4.25308 -12.65862,-6.30858 -12.65862,-6.30857 -8.46268,-4.15836 8.41548,4.25308 12.65862,6.30858 12.65862,6.30857 z m 3.29408,-0.21206 -10.60649,-4.6021 -15.941,-6.83019 -15.94101,-6.8302 -10.64817,-4.50482 10.60649,4.6021 15.941,6.8302 15.94101,6.83019 z m -0.42117,-1.80616 c -2.55482,-0.9576 -5.10965,-1.91521 -7.66447,-2.87281 l -11.52409,-4.23472 -11.52409,-4.23471 -7.70098,-2.77348 7.66447,2.87281 11.52409,4.23472 11.52409,4.23472 c 2.567,0.92449 5.13399,1.84898 7.70098,2.77347 z m -0.57,-1.67602 -7.44642,-2.45783 -11.19399,-3.6112 -11.194,-3.6112 -7.47891,-2.35711 7.44642,2.45783 11.19399,3.6112 11.194,3.61121 z m 6.77049,0.41257 -11.69611,-3.26466 -17.56517,-4.82044 -17.56518,-4.82043 -11.72412,-3.1626 11.69612,3.26466 17.56517,4.82043 17.56517,4.82044 z m 0.16543,-1.42673 -11.86983,-2.83721 -17.82287,-4.17853 -17.82287,-4.17853 -11.89399,-2.73417 11.86983,2.83721 17.82287,4.17853 17.82287,4.17853 z m -3.66915,-2.23061 c -4.39355,-0.88769 -8.7871,-1.77539 -13.18065,-2.66308 l -19.78639,-3.91677 -19.78639,-3.91677 -13.2012,-2.55927 13.18065,2.66309 19.78639,3.91677 19.78639,3.91677 c 4.4004,0.85309 8.8008,1.70617 13.2012,2.55926 z m -2.54848,-1.65338 -13.69298,-2.30263 -20.55234,-3.37561 -20.55233,-3.37561 -13.71013,-2.19819 13.69298,2.30263 20.55233,3.37561 20.55234,3.37561 z m 1.69831,-1.01483 -11.30218,-1.53762 -16.96361,-2.22772 -16.9636,-2.22773 -11.31596,-1.43268 11.30218,1.53762 16.9636,2.22772 16.96361,2.22772 z m 9.83728,-0.14347 c -3.91972,-0.4157 -7.83944,-0.83139 -11.75916,-1.24708 l -17.64675,-1.79165 -17.64675,-1.79165 -11.76985,-1.14178 11.75916,1.24708 17.64675,1.79164 17.64675,1.79165 c 3.92329,0.3806 7.84657,0.76119 11.76985,1.14179 z m 0.74337,-1.2713 -14.34531,-1.156 -21.52404,-1.65486 -21.52405,-1.65487 -14.35342,-1.05048 14.34531,1.156 21.52404,1.65487 21.52405,1.65486 z m 4.72803,-1.0034 -18.17798,-0.98389 -27.27104,-1.39658 -27.27103,-1.39657 -18.18339,-0.87821 18.17798,0.9839 27.27103,1.39658 27.27103,1.39657 z m -3.87703,-1.48106 c -5.629,-0.18092 -11.25799,-0.36183 -16.88698,-0.54275 l -25.33277,-0.73477 -25.33277,-0.73478 -16.89004,-0.43695 16.88698,0.54274 25.33276,0.73478 25.33277,0.73477 c 5.63002,0.14565 11.26003,0.2913 16.89005,0.43696 z m -1.27174,-1.18813 -17.44158,-0.22285 -26.16313,-0.2549 -26.16313,-0.25491 -17.4426,-0.11702 17.44157,0.22285 26.16313,0.25491 26.16313,0.2549 z m 10.44852,-1.25457 -19.74043,0.12981 -29.6099,0.27409 -29.60991,0.27408 -19.73945,0.23564 19.74043,-0.12981 29.60991,-0.27409 29.6099,-0.27408 z m -11.68943,-0.96721 -16.30084,0.38269 -24.44914,0.65337 -24.44913,0.65337 -16.29801,0.48849 16.30084,-0.38269 24.44913,-0.65337 24.44914,-0.65338 z m 9.30405,-1.449 -20.01057,0.81849 -30.01241,1.30703 -30.01241,1.30703 -20.00597,0.92422 20.01057,-0.81849 30.01241,-1.30703 30.01241,-1.30703 z m -6.50438,-0.86021 c -6.36746,0.3683 -12.73492,0.7366 -19.10237,1.1049 l -28.64875,1.73659 -28.64875,1.73658 -19.09597,1.21054 19.10237,-1.1049 28.64875,-1.73659 28.64875,-1.73658 c 6.36532,-0.40351 12.73064,-0.80703 19.09597,-1.21054 z m 5.04899,-1.37151 -18.5001,1.32966 -27.74423,2.07364 -27.74423,2.07364 -18.49221,1.43519 18.5001,-1.32965 27.74423,-2.07364 27.74423,-2.07364 z"
       transform="matrix(1.5911339,-1.3300556,0.86127178,0.89520445,-190.27775,219.52796)" />
  </g>
</svg>
